<?xml version="1.0" standalone="no"?>
<!DOCTYPE svg PUBLIC "-//W3C//DTD SVG 20010904//EN"
 "http://www.w3.org/TR/2001/REC-SVG-20010904/DTD/svg10.dtd">
<svg version="1.0" xmlns="http://www.w3.org/2000/svg"
 width="1136.000000pt" height="1136.000000pt" viewBox="0 0 1136.000000 1136.000000"
 preserveAspectRatio="xMidYMid meet">
<metadata>
Created by potrace 1.11, written by Peter Selinger 2001-2013
</metadata>
<g transform="translate(0.000000,1136.000000) scale(0.100000,-0.100000)"
fill="#000000" stroke="none">
<path d="M3594 10366 l1 -976 -35 -17 c-19 -10 -37 -20 -40 -23 -3 -3 -25 -16
-50 -29 -25 -14 -71 -42 -103 -63 -32 -21 -60 -38 -62 -38 -5 0 -96 -61 -105
-70 -3 -3 -27 -21 -55 -40 -27 -19 -57 -40 -65 -47 -8 -6 -42 -33 -75 -60 -67
-53 -84 -68 -123 -100 -15 -13 -31 -23 -35 -23 -5 0 -5 -4 -2 -10 3 -5 1 -10
-5 -10 -6 0 -70 -60 -143 -133 -150 -150 -200 -206 -299 -332 -26 -33 -55 -69
-65 -80 -22 -24 -203 -292 -203 -300 0 -3 -11 -22 -24 -43 -41 -62 -73 -121
-140 -257 -72 -146 -169 -375 -158 -375 4 0 2 -4 -3 -8 -14 -9 -118 -345 -130
-417 -2 -11 -8 -40 -14 -65 -18 -70 -20 -82 -26 -120 -3 -20 -8 -47 -10 -60
-13 -63 -17 -88 -20 -130 -2 -25 -4 -45 -5 -45 -12 0 -25 -256 -25 -475 0
-273 12 -423 47 -610 5 -30 10 -62 10 -70 3 -71 101 -431 172 -627 102 -284
311 -681 462 -879 19 -24 34 -48 34 -53 0 -5 7 -11 15 -15 8 -3 15 -12 15 -20
0 -8 3 -16 8 -18 4 -1 35 -38 70 -81 90 -111 91 -112 157 -185 115 -125 236
-241 376 -358 69 -58 79 -66 144 -114 33 -25 62 -48 63 -52 2 -5 10 -8 18 -8
8 0 17 -7 20 -15 4 -8 10 -15 15 -15 10 0 103 -62 107 -72 2 -5 10 -8 17 -8 8
0 20 -6 27 -12 8 -7 25 -19 38 -27 14 -8 62 -36 107 -62 45 -26 84 -45 87 -41
8 7 7 101 8 -1365 l1 -1313 3098 0 c2059 0 3099 3 3099 10 0 6 -4 10 -8 10 -4
0 -19 25 -32 55 -13 30 -27 55 -31 55 -4 0 -14 17 -23 38 -9 20 -29 60 -44 87
-15 28 -48 86 -71 130 -24 44 -51 94 -61 110 -10 17 -35 62 -55 100 -21 39
-49 90 -63 115 -13 25 -45 83 -69 130 -25 47 -49 90 -53 95 -4 6 -28 48 -52
95 -25 47 -54 101 -65 120 -11 19 -41 76 -68 125 -26 50 -51 95 -55 100 -4 6
-28 48 -52 95 -25 47 -55 102 -66 122 -12 21 -38 68 -58 105 -20 37 -47 86
-59 108 -13 22 -38 69 -58 105 -19 36 -53 99 -76 140 -23 41 -47 87 -52 103
-6 15 -15 27 -20 27 -5 0 -9 9 -9 20 0 11 -4 20 -9 20 -5 0 -14 15 -21 33 -8
17 -20 40 -28 50 -8 9 -12 17 -7 17 4 0 1 7 -6 16 -16 19 -32 47 -52 89 -8 17
-42 79 -76 139 -33 60 -61 111 -61 114 0 2 -9 17 -21 33 -11 16 -17 29 -14 29
3 0 -2 12 -13 28 -10 15 -25 41 -34 57 -15 30 -50 95 -119 218 -22 38 -39 71
-39 74 0 3 -9 18 -21 34 -11 16 -18 29 -14 29 3 0 -6 17 -20 37 -14 21 -25 44
-25 51 0 8 24 38 52 66 51 50 124 129 197 211 138 155 370 493 457 665 16 30
32 58 37 61 4 3 10 12 11 20 2 8 27 63 56 123 43 91 136 315 145 351 1 6 5 17
8 25 8 18 57 177 62 203 2 9 6 21 9 25 3 5 7 19 10 33 2 13 16 71 29 129 14
58 28 121 31 140 3 19 8 46 10 60 40 229 51 374 51 655 0 121 -4 252 -7 290
-4 39 -9 91 -12 117 -7 77 -17 152 -21 168 -2 8 -7 35 -10 60 -4 25 -13 72
-20 105 -8 33 -16 72 -19 88 -15 70 -21 96 -28 117 -5 13 -50 170 -63 220 -9
33 -65 186 -75 202 -5 10 -10 22 -10 28 0 5 -11 34 -25 64 -14 30 -25 57 -25
60 0 13 -167 343 -180 356 -3 3 -16 25 -29 50 -14 25 -42 71 -63 103 -21 32
-38 61 -38 63 0 3 -5 10 -11 17 -5 7 -43 58 -84 115 -84 117 -120 163 -228
287 -76 87 -250 259 -347 344 -47 41 -87 77 -90 80 -3 3 -12 11 -21 16 -22 14
-211 157 -227 173 -7 6 -20 12 -28 12 -8 0 -14 4 -14 8 0 9 -160 110 -263 166
-15 8 -43 24 -62 36 -19 12 -35 18 -35 13 0 -4 -4 -3 -8 3 -10 16 -129 74
-136 67 -3 -4 -6 -1 -6 5 0 7 -8 12 -18 12 -10 0 -22 4 -27 9 -10 8 -124 58
-210 91 -95 37 -265 93 -322 107 -7 2 -19 5 -25 6 -7 2 -26 7 -43 11 -16 4
-41 12 -55 17 -14 5 -41 11 -60 14 -19 3 -42 8 -50 10 -20 6 -69 15 -100 20
-14 2 -50 8 -80 14 -30 6 -75 13 -100 16 -25 3 -58 7 -75 10 -28 3 -146 14
-240 21 -111 8 -457 2 -565 -11 -30 -3 -71 -8 -90 -10 -33 -3 -86 -10 -155
-20 -16 -3 -40 -7 -51 -9 -12 -2 -37 -7 -55 -10 -57 -10 -78 -14 -162 -35 -21
-5 -36 -7 -33 -4 5 5 -60 141 -74 153 -3 3 -16 29 -30 57 -14 29 -29 53 -33
53 -5 0 -6 4 -2 9 3 5 1 12 -4 15 -5 3 -26 38 -46 78 -20 39 -46 85 -56 102
-21 34 -36 65 -39 81 -1 6 -7 17 -14 25 -7 8 -29 44 -48 80 -20 36 -48 88 -63
115 -15 28 -39 70 -52 95 -14 25 -30 51 -35 58 -6 6 -7 12 -3 12 5 0 2 8 -7
18 -8 9 -20 28 -26 42 -7 14 -32 61 -57 105 -25 44 -53 97 -62 118 -10 20 -21
37 -25 37 -5 0 -8 9 -8 20 0 11 -4 20 -10 20 -5 0 -12 11 -16 25 -3 14 -10 25
-16 25 -5 0 -7 4 -3 9 3 5 0 13 -5 16 -11 7 -27 41 -28 59 0 5 -4 12 -9 15 -6
3 -24 33 -42 66 -18 33 -38 66 -44 74 -7 8 -11 17 -9 20 2 3 -1 7 -6 9 -5 1
-9 -377 -8 -972z m2036 -2140 c14 -3 48 -7 75 -11 73 -10 230 -44 276 -60 22
-8 41 -14 44 -14 18 -1 62 -15 73 -24 6 -5 12 -7 12 -4 0 8 47 -11 203 -82 94
-43 262 -137 316 -178 107 -79 151 -113 176 -133 64 -53 244 -238 301 -310 72
-91 144 -195 144 -208 0 -5 9 -17 20 -27 11 -10 20 -21 20 -25 0 -3 22 -48 50
-100 27 -52 53 -103 56 -114 4 -12 17 -43 30 -70 13 -28 24 -57 24 -66 0 -9 4
-20 8 -25 15 -17 77 -233 88 -305 3 -19 7 -41 10 -48 2 -8 7 -37 10 -65 3 -29
8 -63 11 -77 15 -68 7 -495 -12 -580 -3 -14 -8 -45 -11 -70 -4 -25 -10 -55
-15 -67 -5 -13 -6 -23 -4 -23 2 0 0 -11 -5 -25 -5 -14 -12 -36 -14 -48 -5 -29
-43 -155 -55 -182 -4 -11 -19 -47 -31 -80 -22 -58 -89 -198 -128 -267 -44 -76
-66 -113 -73 -118 -3 -3 -13 -18 -20 -33 l-15 -28 -31 58 c-17 32 -42 78 -55
103 -13 25 -25 47 -28 50 -3 3 -12 19 -20 35 -8 17 -31 59 -51 95 -20 36 -55
101 -79 145 -24 44 -52 96 -63 115 -25 43 -70 127 -109 200 -16 30 -37 69 -47
85 -10 17 -40 73 -68 125 -69 129 -141 262 -153 280 -5 8 -17 31 -25 50 -9 19
-19 37 -23 40 -4 3 -21 32 -38 65 -17 33 -46 87 -64 120 -18 33 -47 87 -64
120 -18 33 -39 71 -48 85 -8 14 -37 66 -63 115 -51 95 -77 143 -124 228 -16
29 -44 81 -64 117 -19 36 -69 127 -111 204 -42 76 -76 142 -76 147 0 5 -5 9
-12 9 -6 0 -8 3 -5 6 4 4 -2 19 -12 33 -10 14 -25 40 -33 56 -22 44 -59 108
-70 123 -6 6 -7 12 -3 12 5 0 2 8 -7 18 -8 9 -19 28 -26 42 -7 14 -16 32 -21
40 -6 8 -38 67 -72 130 -34 63 -73 135 -87 160 -14 25 -39 72 -57 105 -18 33
-44 81 -58 107 -14 25 -23 49 -20 52 6 6 274 -1 323 -8z m-2037 -2178 c-1
-711 -2 -1300 -3 -1308 -1 -18 -39 28 -40 48 0 6 -4 12 -8 12 -5 0 -19 19 -32
43 -12 23 -29 49 -35 57 -30 36 -124 232 -175 365 -25 64 -42 110 -41 113 1 1
-5 25 -14 54 -8 28 -22 85 -31 127 -8 42 -18 85 -20 96 -4 19 -9 58 -21 175
-8 78 -8 300 0 400 7 85 9 101 27 195 11 62 27 130 30 130 1 0 3 15 6 33 2 18
9 42 14 53 6 10 8 19 4 19 -3 0 -1 7 6 15 7 8 9 15 5 15 -4 0 -3 6 2 13 6 6
14 26 18 42 5 17 9 32 10 35 1 3 9 22 18 44 9 21 17 40 17 43 0 2 9 23 19 46
11 23 20 45 21 49 0 4 16 35 35 69 19 33 35 63 35 65 0 9 85 139 92 142 4 2 8
8 8 13 0 8 49 89 54 89 0 0 0 -582 -1 -1292z m1661 -780 c30 -60 52 -108 48
-108 -4 0 -2 -4 3 -8 6 -4 73 -132 150 -285 77 -153 197 -391 267 -530 70
-139 128 -257 128 -264 0 -6 3 -13 8 -15 12 -5 91 -168 83 -172 -9 -6 -194
-45 -236 -51 -106 -13 -178 -18 -315 -20 -85 -1 -166 1 -180 5 l-25 6 0 770
c-1 423 1 773 3 777 6 12 4 14 66 -105z m1430 -2832 c-3 -8 -1 -17 5 -21 6 -3
11 -13 11 -22 0 -9 11 -39 24 -67 14 -28 39 -85 56 -126 46 -109 70 -161 86
-192 8 -15 14 -29 14 -30 -1 -4 24 -67 49 -123 10 -22 25 -56 34 -75 8 -19 24
-55 35 -80 45 -102 102 -240 102 -247 0 -9 -1899 -7 -1908 2 -4 3 -7 179 -7
391 l0 384 175 1 c200 1 292 4 370 13 30 3 80 8 110 11 30 2 66 7 80 9 14 2
46 7 71 10 67 10 92 14 214 42 61 13 119 26 130 28 11 2 40 9 65 16 25 7 52
14 60 15 8 2 15 4 15 5 0 1 7 3 15 5 8 2 56 17 105 34 50 16 91 30 92 30 1 1
0 -5 -3 -13z"/>
</g>
</svg>
