<?xml version="1.0" standalone="no"?>
<!DOCTYPE svg PUBLIC "-//W3C//DTD SVG 20010904//EN"
 "http://www.w3.org/TR/2001/REC-SVG-20010904/DTD/svg10.dtd">
<svg version="1.0" xmlns="http://www.w3.org/2000/svg"
 width="1136.000000pt" height="1136.000000pt" viewBox="0 0 1136.000000 1136.000000"
 preserveAspectRatio="xMidYMid meet">
<metadata>
Created by potrace 1.11, written by Peter Selinger 2001-2013
</metadata>
<g transform="translate(0.000000,1136.000000) scale(0.100000,-0.100000)"
fill="#000000" stroke="none">
<path d="M3590 10379 l0 -985 -97 -54 c-943 -533 -1616 -1455 -1847 -2531 -61
-282 -71 -395 -71 -779 0 -319 2 -371 23 -509 41 -276 85 -460 167 -706 295
-884 917 -1641 1727 -2098 l93 -53 3 -1332 2 -1332 3101 0 c2586 0 3100 2
3096 13 -3 8 -263 486 -578 1063 -314 577 -713 1308 -885 1624 l-314 575 84
85 c499 509 846 1148 1000 1845 70 317 81 429 81 815 0 369 -7 449 -62 735
-201 1048 -854 1981 -1778 2537 -808 487 -1783 656 -2710 470 l-137 -28 -23
41 c-12 22 -78 141 -145 265 -452 830 -713 1306 -721 1315 -5 5 -9 -387 -9
-976z m1975 -2154 c401 -29 813 -187 1149 -439 99 -75 276 -244 361 -346 148
-177 297 -436 376 -650 175 -479 176 -1027 4 -1507 -66 -183 -245 -518 -266
-496 -4 4 -420 764 -924 1688 -504 924 -925 1695 -936 1713 -10 18 -19 35 -19
37 0 13 74 13 255 0z m-1977 -2848 l-3 -642 -63 98 c-129 199 -230 432 -288
665 -147 591 -39 1231 293 1730 l58 87 3 -648 c1 -357 1 -937 0 -1290z m1981
-749 l372 -737 -38 -10 c-162 -40 -340 -61 -528 -61 -84 0 -160 3 -169 6 -14
6 -16 83 -16 777 0 424 2 768 4 766 2 -2 171 -336 375 -741z m1221 -2463 c62
-143 154 -357 206 -476 52 -119 94 -219 94 -223 0 -3 -427 -6 -950 -6 l-950 0
0 384 0 384 298 5 c227 4 330 10 437 26 243 36 449 83 650 149 50 16 93 26 96
23 4 -3 57 -123 119 -266z"/>
</g>
</svg>
