<?xml version="1.0" encoding="utf-8"?>
<!-- Generator: Adobe Illustrator 19.2.1, SVG Export Plug-In . SVG Version: 6.00 Build 0)  -->
<svg version="1.1" id="Layer_1" xmlns="http://www.w3.org/2000/svg" xmlns:xlink="http://www.w3.org/1999/xlink" x="0px" y="0px"
	 viewBox="0 0 2300 725.6" style="enable-background:new 0 0 2300 725.6;" xml:space="preserve">
<style type="text/css">
	.st0{fill:#E84125;}
	.st1{fill:#1C94C8;}
	.st2{fill:#21D480;}
	.st3{fill:#FFFFFF;}
	.st4{clip-path:url(#SVGID_2_);}
	.st5{fill:url(#);}
	.st6{fill:#0054C7;}
	.st7{font-family:'Muli-Black';}
	.st8{font-size:121.1666px;}
	.st9{letter-spacing:7;}
	.st10{fill:#FF7C10;}
	.st11{fill:#FFD604;}
	.st12{fill:#470D7F;}
	.st13{fill:#01CEDC;}
	.st14{fill:#D92284;}
</style>
<g>
	<polygon class="st3" points="942.1,183.8 1026.9,183.8 1042.3,95.8 766.4,95.8 751,183.8 835,183.8 756.4,631.8 862.8,631.8 	"/>
	<path class="st3" d="M1751.3,363.6l71.7,60.1c17.7,14.6,25.4,24.7,20,51.6l-8.5,51.7c-2.3,11.6-10,17.8-20.8,17.8h-23.9
		c-10.8,0-17-6.2-14.6-17.8l15.4-84l-109.4,11.5l-17.7,100.6c-8.5,47.8,19.3,76.7,71.7,76.7h107.1c50.1,0,84.8-28.9,93.3-76.7
		l18.5-105c7.7-44.7-1.5-73.7-33.9-101.4l-75.5-62.3c-14.6-13.1-22.3-23.8-17.7-50.8l6.2-34c1.5-12.3,9.2-17.8,20-17.8h23.1
		c10.8,0,17.7,5.5,15.4,17.8l-13.1,73.3l108.7-10l15.4-91.9c8.5-48.6-19.3-77.2-65.5-77.2h-118.7c-14.8,0-27.7,1.9-38.7,6.6
		l-0.1-0.1l-56.8,117.5l-6.8,41.3C1708.2,305.8,1715.9,333.5,1751.3,363.6z"/>
	<path class="st3" d="M512.7,173c8.5-48.6-18.5-77.2-65.5-77.2H328.5c-50.1,0-78.6,28.7-87.1,77.2l-67.8,382.4
		c-8.5,47.8,25.4,76.4,71.7,76.4h107.1c50.9,0,84.8-28.9,93.3-76.7L471,412.3l-104.8-12.8l-22.3,127.4c-2.3,11.6-9.2,17.9-20,17.9
		H300c-10,0-17-6.2-14.6-17.8l57.8-325.4c1.5-12.3,9.2-17.9,20-17.9h23.1c10.8,0,17,5.5,15.4,17.8l-20.8,114.9l108.7-12.8L512.7,173
		z"/>
	<path class="st3" d="M711.3,631.8l30.1-536H586.4L482.1,448l-19.8,111.6c-4.5,25.2-15.4,45.4-31.7,61.2l-3.7,11.2h97.9l23.1-81
		h66.3l-6.2,81H711.3z M571,463.8l67.8-248.2l-18.5,248.2H571z"/>
	<path class="st3" d="M1202.6,631.8l30.1-536h-154.9l-159.5,536h97.9l23.1-81h66.3l-6.2,81H1202.6z M1062.4,463.8l67.8-248.2
		l-18.5,248.2H1062.4z"/>
	<polygon class="st3" points="1413.6,95.8 1307.2,95.8 1222.9,573.9 1219.6,631.8 1443.6,631.8 1459.8,544.8 1335,544.8 	"/>
	<polygon class="st3" points="1611,411.6 1764.3,95.8 1664.9,95.8 1582.4,278.5 1562.4,95.8 1458.4,95.8 1503.8,411.6 1465.3,631.8 
		1572.4,631.8 	"/>
	<g>
		<path class="st3" d="M2186.8,183.8h84.8l15.4-88h-275.9l-2.8,15.8c8.8,13.1,16.3,33.4,11,63.9l-1.5,8.3h61.9l-78.6,448h106.4
			L2186.8,183.8z"/>
	</g>
</g>
<text transform="matrix(0.1756 -0.9845 0.9845 0.1756 112.6678 634.2571)" class="st3 st7 st8 st9">VIACOM</text>
</svg>
